<svg
  xmlns="http://www.w3.org/2000/svg"
  fill="none"
  viewBox="0 0 1286 260"
  class="h-8 flex shrink-0 items-center justify-center bg-none"
  data-v-3578744c=""
>
  <title data-v-3578744c="">Logo do Escavador</title>
  <defs data-v-3578744c=""></defs>
  <path
    fill="#F5BD1D"
    d="M269.6 41.7c-5.8-8.8-15.9-13.1-26.2-11.4L184 40c-3.4-22.7-23.4-40-46.9-40-23.4 0-43.4998 17.3-46.8998 39.9l-59.4-9.7c-10.4-1.6-20.4 2.8-26.19998 11.5-5.8 8.7-5.9 19.6-.4 28.5 0 0 0 .1.1.1L114.8 246.7c4.8 7.7 13.2 12.4 22.3 12.4 9.1 0 17.5-4.6 22.3-12.4L270 70.3c5.6-8.9 5.4-19.9-.4-28.6zM137.1 238.6v2.8-2.8c-2.1 0-3.9-1-5-2.8L21.6002 59.4c-1.3-2.1-1.3-4.4.1-6.4 1.1-1.7 2.9-2.7 4.8-2.7.4 0 .7 0 1.1.1l64.3 10.5c6.4 23.5 26.0998 54.9 45.2998 54.9s38.9-31.4 45.3-54.9l64.3-10.5c2.3-.4 4.5.6 5.9 2.6 1.3 2 1.4 4.4.1 6.4L142.1 235.8c-1.1 1.8-2.9 2.8-5 2.8zm0-218.1c14.9 0 27 11.8 27 26.4 0 19.5-21.7 48.5-27 48.5-5.4 0-27-29-27-48.5 0-14.6 12.1-26.4 27-26.4z"
    data-v-3578744c=""
    data-darkreader-inline-fill=""
    style="--darkreader-inline-fill: #8a6806;"
  ></path>
  <path
    fill="#424242"
    d="M517.5 142.4c0 34.3 26.2 56.7 58 56.7 12.9 0 24.7-3.3 29.8-5.8v-26.1c-5.3 2.6-15.1 6.5-25.8 6.5-18.3 0-34-10.7-34-30.9 0-20.6 16.4-31.1 34.9-31.1 10.2 0 19.4 2.9 25.1 6.5V91.9999c-4-2-15.5-6-30.1-6-31 0-57.9 21.7001-57.9 56.4001zM367.8 85.6999c-28.7 0-53.3 22.5001-53.3 55.8001 0 34 24 57.6 62 57.6 18 0 30.2-5.6 34.4-8v-24.2c-5.1 2.9-19.1 8.9-34.3 8.9-18 0-32-8.9-35.2-24h76.7c.2-2.5.5-8.2.5-11.6-.1-33.3-22.9-54.5001-50.8-54.5001zM341.4 133.3c1.4-16 11.8-24.5 25.8-24.5 13.3 0 24.2 7.8 25.6 24.5h-51.4zm130.5-4c-10-2.9-18.4-5.3-18.4-11.6 0-6.5 7.8-9.8 18-9.8 13.8 0 24.9 5.3 31.6 8.9V91.6999c-4.9-2.2-16.7-6-31.6-6-28.9 0-44.5 14-44.5 32.4001 0 20.6 16.4 26.9 31.8 31.3 12.7 3.7 24.7 6.2 24.7 15.5 0 7.6-7.6 10.7-19.4 10.7-15.8 0-30.7-8-35.6-10.7v26c5.8 2.9 20.5 8 36.4 8 26.2 0 44.7-13.3 44.7-35.6.1-24-21.2-29.6-37.7-34zm804.2-43.6001c-15.1 0-26.7 12.7-30.9 21.6001V87.9999h-26.7V197h27.6v-50.7c0-18.9 11.8-33.2 30.2-33.2 2.9 0 6.2.2 9.6.6V86.5999c-2.5-.4-5.8-.9-9.8-.9zm-227.9-45.3V102.7c-2.9-5.6001-13.2-16.9001-32.2-16.9001-28.7 0-51.3 24.2001-51.3 56.4001 0 32.7 22.5 56.9 51.3 56.9 18.3 0 26.9-9.3 32.2-17.4v15.1h27.6V40.3999h-27.6zM1020.8 174.9c-14.7 0-28.2-12.9-28.2-32.7 0-20.5 13.8-32 28.2-32 16.7 0 28.9 12.7 28.9 31.8.1 19.8-12.4 32.9-28.9 32.9zm126.3-89.2001c-30.1 0-57.4 24.2001-57.4 56.7001s27.3 56.7 57.4 56.7c30.1 0 57.4-24.2 57.4-56.7s-27.3-56.7001-57.4-56.7001zm0 87.4001c-15.8 0-29.3-12-29.3-30.7s13.6-30.7 29.3-30.7c15.8 0 29.3 12 29.3 30.7s-13.4 30.7-29.3 30.7zm-450.7-70.5c-2.9-5.6001-13.2-16.9001-32.2-16.9001-28.5 0-51.3 24.2001-51.3 56.4001 0 32.7 22.6 56.9 51.3 56.9 18.4 0 27.1-9.3 32.2-17.4v15.1h27.8V87.9999h-27.8V102.6zm-27.1 72.3c-14.7 0-28.2-12.9-28.2-32.7 0-20.5 13.8-32 28.2-32 16.7 0 28.9 12.7 28.9 31.8.1 19.8-12.4 32.9-28.9 32.9zM923 102.6c-2.9-5.6001-13.2-16.9001-32.2-16.9001-28.5 0-51.3 24.2001-51.3 56.4001 0 32.7 22.6 56.9 51.3 56.9 18.4 0 27.1-9.3 32.2-17.4v15.1h27.8V87.9999H923V102.6zm-27.1 72.3c-14.7 0-28.2-12.9-28.2-32.7 0-20.5 13.8-32 28.2-32 16.7 0 28.9 12.7 28.9 31.8 0 19.8-12.5 32.9-28.9 32.9zm-85.8-86.9001L786.9 168.9l-23.1-80.9001h-30.2L772.1 196.9h29.6l38.6-108.9001h-30.2z"
    data-v-3578744c=""
    data-darkreader-inline-fill=""
    style="--darkreader-inline-fill: #323638;"
  ></path>
</svg>